<?xml version="1.0" encoding="UTF-8"?>
<svg id="Ebene_2" data-name="Ebene 2" xmlns="http://www.w3.org/2000/svg" viewBox="0 0 195.82 108.7">
  <defs>
    <style>
      .cls-1 {
        fill: #007c39;
      }

      .cls-2 {
        fill: #fff;
      }

      .cls-3 {
        fill: #fc0;
      }

      .cls-4 {
        fill: #d40511;
      }

      .cls-5 {
        fill: #4b4b4b;
      }
    </style>
  </defs>
  <g id="Ebene_2-2" data-name="Ebene 2">
    <g>
      <rect class="cls-3" width="195.82" height="43.22"/>
      <g>
        <g>
          <g>
            <polygon class="cls-4" points="0 29.86 26.49 29.86 25.05 31.84 0 31.84 0 29.86"/>
            <polygon class="cls-4" points="0 26.22 29.18 26.22 27.73 28.18 0 28.18 0 26.22"/>
            <polygon class="cls-4" points="0 33.52 23.81 33.52 22.36 35.48 0 35.48 0 33.52"/>
          </g>
          <g>
            <polygon class="cls-4" points="195.82 31.84 169.44 31.84 170.89 29.86 195.82 29.86 195.82 31.84"/>
            <polygon class="cls-4" points="195.82 35.48 166.76 35.48 168.21 33.52 195.82 33.52 195.82 35.48"/>
            <polygon class="cls-4" points="173.57 26.22 195.82 26.22 195.82 28.18 172.15 28.18 173.57 26.22"/>
          </g>
        </g>
        <g>
          <path class="cls-4" d="M25.65,35.48l12.57-17.08h15.59c1.72,0,1.7,.65,.86,1.8-.86,1.16-2.31,3.15-3.19,4.33-.45,.61-1.23,1.68,1.41,1.68h20.89c-1.74,2.39-7.38,9.26-17.49,9.26H25.65Z"/>
          <path class="cls-4" d="M97.62,26.22l-6.81,9.26h-17.98l6.81-9.26h17.98Z"/>
          <path class="cls-4" d="M123.62,26.22l-6.81,9.26h-17.98l6.81-9.26h17.98Z"/>
          <path class="cls-4" d="M129.46,26.22s-1.31,1.8-1.96,2.66c-2.25,3.05-.25,6.6,7.11,6.6h28.86l6.81-9.26h-40.83Z"/>
        </g>
        <g>
          <path class="cls-4" d="M34.44,7.79l-6.25,8.5H62.29c1.72,0,1.7,.65,.86,1.8-.86,1.16-2.29,3.17-3.15,4.35-.45,.59-1.23,1.68,1.41,1.68h13.94s2.25-3.05,4.13-5.62c2.57-3.49,.22-10.71-8.95-10.71H34.44Z"/>
          <polygon class="cls-4" points="125.17 24.12 81.19 24.12 93.21 7.79 111.19 7.79 104.29 17.15 112.32 17.15 119.22 7.79 137.19 7.79 125.17 24.12"/>
          <path class="cls-4" d="M162.06,7.79l-12.02,16.33h-19.03l12.02-16.33s19.03,0,19.03,0Z"/>
        </g>
      </g>
    </g>
    <g>
      <rect class="cls-2" x=".61" y="57.57" width="135.88" height="50.52"/>
      <polygon class="cls-3" points="136.25 85.83 12.92 85.83 12.92 77.84 12.92 69.83 136.25 69.83 136.25 85.83"/>
      <path class="cls-1" d="M135.88,58.22v49.27H1.21V58.22H135.88m1.19-1.19H0v51.68H137.07V57.02Z"/>
      <path class="cls-5" d="M19.23,86.2c-1.68,.1-3.35-.47-4.62-1.57-1.16-1.12-1.76-2.68-1.68-4.29,0-.37,.02-.8,.08-1.29,.04-.49,.12-.98,.22-1.49,.49-2.64,1.43-4.64,2.82-6.03,1.43-1.39,3.35-2.13,5.35-2.08,2.08-.08,4.05,.8,5.37,2.43l-2.27,2.06c-.37-.45-.82-.82-1.35-1.08-.53-.23-1.12-.33-1.68-.33-1.16-.06-2.29,.41-3.07,1.27-.88,1.17-1.45,2.57-1.61,4.03-.08,.41-.14,.84-.18,1.25s-.06,.76-.06,1.06c-.06,.8,.22,1.59,.74,2.19,.57,.53,1.33,.82,2.1,.76,.92,.04,1.8-.29,2.47-.9,.69-.7,1.14-1.63,1.23-2.6l.02-.14h-3.19l.51-2.92h6.7l-.39,2.25c-.88,4.93-3.37,7.4-7.48,7.4Zm16.1,0c-1.7,.1-3.39-.45-4.7-1.55-1.17-1.08-1.8-2.62-1.72-4.21,.02-.96,.12-1.92,.29-2.86,.45-2.62,1.37-4.62,2.76-6.01,1.41-1.41,3.33-2.15,5.33-2.1,1.7-.1,3.39,.45,4.7,1.55,1.17,1.08,1.8,2.62,1.72,4.21-.02,.96-.12,1.92-.29,2.86-.45,2.62-1.37,4.62-2.76,6.01-1.41,1.41-3.33,2.17-5.33,2.1Zm.1-3.07c1.12,.04,2.19-.43,2.9-1.29,.86-1.19,1.39-2.57,1.55-4.03,.08-.41,.14-.86,.18-1.29s.06-.8,.06-1.1c.06-.78-.22-1.57-.76-2.13-.61-.51-1.37-.78-2.17-.72-1.12-.04-2.19,.43-2.9,1.29-.86,1.19-1.39,2.57-1.55,4.03-.08,.43-.14,.86-.18,1.29-.04,.45-.06,.82-.06,1.1-.06,.78,.22,1.57,.76,2.13,.61,.51,1.39,.76,2.17,.72h0Z"/>
      <path class="cls-1" d="M51.83,86.2c-1.68,.1-3.35-.47-4.62-1.57-1.16-1.12-1.76-2.68-1.68-4.29,0-.37,.02-.8,.08-1.29s.12-.98,.22-1.49c.49-2.64,1.43-4.64,2.82-6.03,1.43-1.39,3.35-2.13,5.35-2.08,2.08-.08,4.05,.8,5.37,2.43l-2.27,2.06c-.37-.45-.82-.82-1.35-1.08-.53-.23-1.12-.33-1.68-.33-1.16-.06-2.29,.41-3.07,1.27-.88,1.17-1.45,2.57-1.61,4.03-.08,.41-.14,.84-.18,1.25s-.06,.76-.06,1.06c-.06,.8,.22,1.59,.74,2.19,.57,.53,1.33,.82,2.1,.76,.92,.04,1.8-.29,2.47-.9,.69-.7,1.14-1.63,1.23-2.6l.02-.14h-3.19l.51-2.92h6.7l-.39,2.25c-.86,4.93-3.35,7.4-7.48,7.4Zm9.2-.37l2.82-16h5.6c1.49-.08,2.98,.33,4.21,1.17,.98,.72,1.55,1.88,1.53,3.09,0,.2-.02,.43-.04,.69-.02,.27-.06,.53-.12,.8-.14,.98-.53,1.9-1.14,2.66-.61,.72-1.43,1.23-2.33,1.49l2.41,6.09h-3.9l-2.02-5.68h-2.51l-1,5.68h-3.52Zm7.97-13.12h-2.13l-.8,4.56h2.17c.82,.06,1.63-.12,2.35-.49,.55-.37,.9-.96,.98-1.63,.02-.1,.04-.22,.04-.31v-.14c.02-1.33-.86-2-2.6-2Zm7.54,13.12l2.82-16h10.55l-.53,3.05h-6.95l-.61,3.37h6.25l-.51,2.96h-6.25l-.63,3.56h7.21l-.53,3.05h-10.83Zm13.88,0l2.82-16h10.55l-.53,3.05h-6.95l-.61,3.37h6.27l-.51,2.96h-6.25l-.63,3.56h7.21l-.53,3.05h-10.85Zm13.75,0l2.82-16h4.56l3.23,11.32h.39l2-11.32h3.37l-2.82,16h-4.56l-3.23-11.32h-.39l-2,11.32h-3.37Z"/>
    </g>
  </g>
</svg>