<?xml version="1.0" encoding="UTF-8"?><svg id="Ebene_2" xmlns="http://www.w3.org/2000/svg" viewBox="0 0 337.15 125.23"><defs><style>.cls-1{fill:#fff;}.cls-2{fill:#1f3a6a;}.cls-3{fill:#5dc4e9;}</style></defs><g id="Ebene_1-2"><g><rect class="cls-1" width="337.15" height="125.23" rx="3.22" ry="3.22"/><path class="cls-2" d="M145.63,49.42h-5.62v31.96h5.62v-31.96Zm-18.26,16.19c.04,2.41-.6,4.79-1.85,6.86-1.91,3.01-4.78,4.45-7.29,4.45-2.18-.03-4.26-.87-5.86-2.34-2.25-2.23-2.91-5.81-2.91-9.22,.04-4.82,1.43-7.54,3.71-9.62,1.34-1.3,3.14-2.03,5.01-2.04,1.94,.05,3.8,.74,5.3,1.96,4.07,3.4,3.89,9.65,3.89,9.96m2.87,24.72c2.38-3.14,2.57-6.41,2.74-13.1l-.07-27.8h-5.35v4.94c-.7-1.13-1.57-2.14-2.58-3.01-2.15-1.76-4.87-2.66-7.64-2.55-4.31,0-8.33,2.14-10.74,5.71-2.5,3.45-3.17,7.59-3.17,11.11-.03,2.28,.29,4.56,.95,6.74,.79,2.72,2.35,5.16,4.48,7.04,2.38,1.94,5.42,2.89,8.48,2.66,2.77-.11,5.45-1.07,7.64-2.77,.82-.7,1.55-1.51,2.15-2.41l-.05,4.38c-.04,1.45-.29,2.88-.74,4.26-.31,.9-.79,1.72-1.43,2.42-1.54,1.78-3.5,2.7-7.27,2.83-2.77-.01-5.51-.47-8.13-1.36-1.1-.41-2.15-.93-3.16-1.54l-.6,5.57c.9,.36,1.56,.61,2.52,.94,2.92,.89,5.95,1.35,9,1.35,4.42,0,7.23-1.01,9.14-2.04,1.51-.81,2.82-1.96,3.83-3.34m9.4-48.51h6.15v-6.31h-6.15v6.31Zm26.87,12.35c1.33,.01,2.64,.27,3.87,.76v-5.61c-.28,0-2.01-.27-3.44-.27-2.88-.13-5.66,1.08-7.53,3.28-.57,.77-1.09,1.58-1.56,2.42l-.29-5.33h-5.38c.17,4.01,.32,6.8,.32,10.75,0,4.63-.09,7.9-.09,12.48v8.73h5.8v-15.64c.17-3.03,.35-7.04,3.46-9.77,1.32-1.19,3.05-1.83,4.83-1.8m29.38,10.93c0,3.49-1.09,8.61-5.38,11.03-2.57,1.4-5.65,1.49-8.3,.25-.55-.29-1.07-.63-1.57-1.01-1.35-1.12-2.4-2.56-3.04-4.2-.79-1.96-1.16-4.07-1.06-6.18,.1-4.43,1.95-7.58,3.87-9.2,1.75-1.5,3.98-2.31,6.28-2.29,4.95,.06,7.14,3.46,8.22,6.05,.64,1.78,.96,3.65,.96,5.54m1.25,12.77c3.69-3.72,4.76-8.79,4.7-12.87-.17-7.85-4.29-12.54-8.18-14.59-2.17-1.04-4.56-1.56-6.96-1.53-7.17,0-11.77,3.71-13.98,7.53-1.49,2.8-2.25,5.92-2.22,9.09-.06,6.42,2.22,10.19,4.96,12.85,.64,.55,1.32,1.05,2.04,1.49,1.79,1.17,4.36,2.15,8.59,2.15,2.32,.08,4.62-.34,6.75-1.25,1.6-.69,3.06-1.66,4.3-2.88"/><path class="cls-2" d="M206.79,56.22c.17,6.18,.17,10.57,.17,16.78,0,7.74-.13,15.49-.17,23.23h5.71v-19.16c.55,.73,1.15,1.41,1.8,2.03,2.18,1.91,4.98,2.94,7.87,2.9,3.83,.02,7.49-1.57,10.09-4.38,4.77-5.13,4.38-12.06,4.38-13.09-.02-2.39-.46-4.76-1.28-7.01-1.54-3.95-5.17-8.83-12.71-8.83-.81,0-5.21,0-8.53,3.29-.76,.69-1.42,1.47-1.98,2.33l-.25-4.88h-5.38c.15,2.55,.17,4.27,.26,6.79Zm5.61,8.91c0-1.51,.23-3.01,.66-4.45,1.49-4.52,4.87-6.98,8.64-6.98,3.04,0,6.08,1.66,7.77,5.26,.92,2.05,1.32,4.3,1.18,6.54,0,1.68-.28,3.34-.83,4.93-2.08,5.94-6.8,6.52-8.36,6.52-3.63,0-6.96-2.44-8.4-6.85-.47-1.61-.69-3.28-.66-4.96h0Z"/><path class="cls-2" d="M295.52,49.42l-7.13,17.3-3.22,8.38-.22,.45c-.81-2.4-1.93-5.39-2.94-8.23l-6.61-17.89h-6.13l12.84,31.95-6.25,14.85h5.72l20.01-46.8h-6.05Z"/><path class="cls-2" d="M265.07,53.56c-1.67-2.79-5.96-4.75-10.98-4.75-6.09,0-9.18,2.18-10.02,2.7v5.02c1.29-.76,4.97-3.03,8.95-3.03s6.92,2.23,7.72,4.32c.42,1.36,.61,2.79,.58,4.22-1.48-.07-3.05-.13-4.59-.13-3.15,0-7.58,.13-10.73,1.68-2.45,1.17-5.8,3.44-5.8,8.56-.06,2.82,1.12,5.53,3.23,7.42,1.79,1.52,4.2,2.11,6.64,2.26,3.64,.11,6.77-1.01,8.35-2.12,1.25-1.01,2.38-2.14,3.39-3.39v5.07h4.88v-20.63c0-3.19-.74-5.89-1.6-7.18Zm-3.62,13.42c.06,1.46-.11,2.91-.49,4.32-.3,.99-.79,1.92-1.43,2.73-1.85,2.52-4.95,3.38-7.23,3.38-2.63,0-6.13-1.37-6.13-5.12s4.35-5.69,6.76-6.09c1.4-.21,2.81-.29,4.22-.26,1.43,0,2.86,.04,4.29,.16v.88Z"/><polygon class="cls-2" points="69.67 49.77 66.03 49.77 66.03 50.74 68.9 50.74 76.14 80.18 39.1 80.18 46.34 50.74 49.21 50.74 49.21 49.77 45.56 49.77 37.55 81.38 77.69 81.38 69.67 49.77"/><path class="cls-3" d="M64.66,36.48h-14.08c-.79,0-1.43,.64-1.43,1.43v13.81h1.06v-13.81c0-.2,.17-.37,.37-.37h2.62v9.96h-2.76l3.95,4.22h6.44l3.95-4.22h-2.76v-9.96h2.63c.2,0,.37,.17,.37,.37v13.81h1.06v-13.81c0-.79-.64-1.43-1.43-1.43Z"/><path class="cls-2" d="M54.52,68.96h6.21c.39,0,.7-.31,.71-.7,0-.02,0-.04,0-.05l-.24-4.07c-.03-.42-.38-.74-.79-.75h-5.56c-.42,0-.76,.33-.79,.75l-.24,4.07c-.03,.39,.27,.72,.65,.75,.02,0,.04,0,.05,0Z"/><path class="cls-2" d="M51.86,63.39h-5.61c-.43,.02-.8,.32-.9,.74l-.82,4.1c-.08,.32,.11,.64,.43,.72,.06,.01,.12,.02,.17,.02h6.25c.42,0,.77-.33,.81-.75l.35-4.07c.04-.37-.23-.71-.61-.75-.03,0-.05,0-.08,0Z"/><path class="cls-2" d="M54.77,62.11h5.71c.31,0,.56-.25,.57-.56,0-.01,0-.03,0-.04l-.19-3.25c-.02-.33-.3-.59-.64-.6h-5.19c-.34,0-.61,.27-.64,.6l-.19,3.25c-.02,.31,.21,.58,.52,.6,.01,0,.03,0,.04,0Z"/><path class="cls-2" d="M52.5,57.66h-5.25c-.34,.01-.64,.25-.72,.59l-.66,3.28c-.06,.25,.09,.51,.34,.57,.05,.01,.09,.02,.14,.01h5.76c.34,0,.62-.26,.65-.6l.28-3.26c.03-.3-.19-.56-.49-.6-.02,0-.04,0-.06,0Z"/><path class="cls-2" d="M68.86,62.11c.26,.01,.48-.19,.5-.45,0-.05,0-.09-.01-.14l-.66-3.28c-.08-.34-.37-.58-.72-.59h-5.23c-.3,0-.55,.23-.55,.53,0,.02,0,.04,0,.06l.28,3.26c.03,.34,.31,.59,.65,.6h5.75Z"/><path class="cls-2" d="M55.01,56.56h5.21c.27,0,.49-.21,.5-.49,0-.01,0-.03,0-.04l-.15-2.51c-.02-.29-.26-.52-.56-.52h-4.79c-.29,0-.53,.23-.56,.52l-.15,2.51c-.02,.27,.19,.5,.46,.52,.01,0,.03,0,.04,0Z"/><path class="cls-2" d="M67.82,56.56c.23,.01,.42-.16,.43-.39,0-.04,0-.08-.01-.12l-.51-2.53c-.07-.29-.33-.5-.63-.52h-4.83c-.26,0-.48,.2-.48,.47,0,.02,0,.04,0,.06l.22,2.51c.03,.29,.28,.52,.57,.52h5.25Z"/><path class="cls-2" d="M52.98,53h-4.86c-.3,.01-.56,.22-.63,.52l-.51,2.53c-.06,.22,.08,.45,.3,.5,.04,0,.08,.01,.12,.01h5.27c.3,0,.54-.23,.57-.52l.22-2.51c.03-.26-.16-.49-.42-.52-.02,0-.04,0-.06,0Z"/><path class="cls-2" d="M70.1,68.96c.33,.02,.6-.24,.62-.56,0-.06,0-.12-.02-.17l-.83-4.1c-.1-.42-.47-.72-.9-.74h-5.59c-.37,0-.68,.29-.69,.67,0,.03,0,.05,0,.08l.35,4.07c.04,.42,.39,.74,.81,.75h6.24Z"/><path class="cls-2" d="M60.66,70.47h-6.09c-.5,0-.92,.4-.95,.9l-.3,5.16c-.03,.46,.32,.87,.78,.9,.02,0,.04,0,.07,0h6.9c.46,0,.85-.37,.85-.83,0-.02,0-.04,0-.07l-.3-5.16c-.04-.5-.45-.89-.95-.9Z"/><path class="cls-2" d="M51.1,70.47h-6.13c-.52,.02-.96,.38-1.08,.88l-1.04,5.19c-.1,.38,.13,.77,.51,.86,.07,.02,.14,.02,.21,.02h6.93c.51,0,.93-.39,.98-.9l.44-5.16c.05-.45-.28-.85-.73-.89-.03,0-.06,0-.1,0Z"/><path class="cls-2" d="M71.33,71.36c-.12-.5-.56-.86-1.08-.88h-6.12c-.45,0-.82,.35-.83,.8,0,.03,0,.06,0,.1l.44,5.16c.05,.5,.47,.89,.98,.9h6.93c.39,.02,.72-.28,.74-.67,0-.07,0-.14-.02-.21l-1.05-5.19Z"/><path class="cls-3" d="M333.99,1.38c.96-.03,1.76,.73,1.78,1.69V122.07c0,.98-.8,1.78-1.78,1.78H3.15c-.98,0-1.78-.8-1.78-1.78V3.1c0-.96,.79-1.73,1.75-1.73H333.99Zm-.06-1.38H3.22C1.44,0,0,1.44,0,3.22V122.01c0,1.77,1.44,3.21,3.22,3.22H333.93c1.77,0,3.21-1.44,3.22-3.22V3.22c0-1.77-1.44-3.21-3.22-3.22Z"/></g></g></svg>