<svg width="50" height="50" xmlns="http://www.w3.org/2000/svg">

 <g>
  <title>background</title>
  <rect fill="none" id="canvas_background" height="402" width="582" y="-1" x="-1"/>
 </g>
 <g>
  <title>Layer 1</title>
  <rect id="svg_1" width="50" height="50" fill="none"/>
  <path stroke="#f4b451" transform="rotate(-0.015106362290680408 24.999570846568798,25.02538299561273) " id="svg_2" stroke-width="3" stroke-miterlimit="10" fill="none" d="m30.083791,35.026691c0,0 3.945623,-2.261285 4.97856,-2.804657c1.030013,-0.545323 2.097056,-0.682873 2.745078,-0.286807c0.98129,0.600928 9.221395,6.088301 9.915217,6.574116c0.693822,0.486791 1.028064,1.876925 0.07406,3.238769c-0.950107,1.361844 -5.333266,6.746785 -7.190603,6.689229c-1.86026,-0.060483 -9.594617,-0.230226 -24.179487,-14.834928c-14.581947,-14.599825 -14.754428,-22.34458 -14.81387,-24.206872c-0.059443,-1.861317 5.319624,-6.250239 6.679982,-7.202359c1.362307,-0.951145 2.752874,-0.593124 3.23621,0.076092c0.5496,0.761891 5.967645,8.984658 6.56402,9.927022c0.408302,0.643852 0.258234,1.717913 -0.286494,2.750027c-0.541804,1.034065 -2.800622,4.983997 -2.800622,4.983997s1.592282,2.71881 6.977194,8.108629c5.385887,5.390795 8.100757,6.987742 8.100757,6.987742z"/>
 </g>
</svg>