<?xml version="1.0" encoding="UTF-8"?><svg id="Ebene_2" xmlns="http://www.w3.org/2000/svg" viewBox="0 0 932.68 129.37"><defs><style>.cls-1{fill:#f79e1b;}.cls-2{fill:#eb001b;}.cls-3{fill:#fff;}.cls-4{fill:#ff5f00;}</style></defs><g id="Ebene_1-2"><g><g><path d="M915.06,1.46h-161.49c-.67,0-1.35,0-2.02,0-.57,0-1.13,.01-1.7,.03-1.23,.03-2.48,.11-3.7,.33-1.24,.22-2.39,.59-3.52,1.16-1.11,.56-2.12,1.3-3,2.18-.88,.88-1.61,1.89-2.18,3-.57,1.12-.94,2.28-1.16,3.52-.22,1.22-.29,2.46-.33,3.7-.02,.57-.02,1.13-.03,1.7,0,.67,0,1.35,0,2.02V109.79c0,.67,0,1.35,0,2.02,0,.57,.01,1.13,.03,1.7,.03,1.23,.11,2.48,.33,3.7,.22,1.24,.59,2.39,1.16,3.52,.56,1.11,1.3,2.12,2.18,3,.88,.88,1.89,1.61,3,2.18,1.12,.57,2.28,.94,3.52,1.16,1.22,.22,2.46,.29,3.7,.33,.57,.01,1.13,.02,1.7,.02,.67,0,1.35,0,2.02,0h161.49c.67,0,1.35,0,2.02,0,.57,0,1.13-.01,1.7-.02,1.23-.03,2.48-.11,3.7-.33,1.24-.22,2.39-.59,3.52-1.16,1.11-.56,2.12-1.3,3-2.18,.88-.88,1.61-1.89,2.18-3,.57-1.12,.94-2.28,1.16-3.52,.22-1.22,.29-2.46,.33-3.7,.02-.57,.02-1.13,.03-1.7,0-.67,0-1.35,0-2.02V19.08c0-.67,0-1.35,0-2.02,0-.57-.01-1.13-.03-1.7-.03-1.23-.1-2.48-.33-3.7-.22-1.24-.58-2.39-1.16-3.52-.56-1.11-1.3-2.12-2.18-3-.88-.88-1.89-1.61-3-2.18-1.12-.57-2.28-.94-3.52-1.16-1.22-.22-2.47-.29-3.7-.33-.57-.02-1.14-.02-1.7-.03-.67,0-1.35,0-2.02,0h0Z"/><path class="cls-3" d="M915.06,5.66h1.99c.54,0,1.08,.01,1.62,.03,.94,.03,2.04,.08,3.07,.26,.89,.16,1.64,.41,2.36,.77,.71,.36,1.36,.83,1.93,1.4,.57,.57,1.04,1.22,1.41,1.94,.36,.71,.61,1.46,.77,2.36,.18,1.02,.23,2.12,.26,3.07,.01,.53,.02,1.07,.02,1.62,0,.66,0,1.32,0,1.99V109.79c0,.66,0,1.32,0,2,0,.53,0,1.07-.02,1.6-.03,.95-.08,2.05-.26,3.08-.16,.89-.4,1.63-.77,2.35-.36,.72-.84,1.36-1.4,1.93-.57,.57-1.22,1.04-1.94,1.4-.71,.36-1.46,.61-2.34,.77-1.05,.19-2.19,.24-3.06,.26-.54,.01-1.08,.02-1.64,.02-.66,0-1.32,0-1.98,0h-161.52c-.65,0-1.31,0-1.97,0-.54,0-1.08,0-1.61-.02-.88-.02-2.03-.08-3.07-.26-.89-.16-1.64-.4-2.36-.77-.71-.36-1.36-.83-1.93-1.4-.57-.57-1.04-1.21-1.4-1.93-.36-.72-.61-1.46-.77-2.36-.19-1.03-.24-2.12-.26-3.06-.01-.54-.02-1.08-.02-1.61v-1.58s0-.42,0-.42V18.67s0-1.57,0-1.57c0-.54,0-1.08,.02-1.61,.03-.94,.08-2.04,.26-3.07,.16-.89,.4-1.64,.77-2.35,.36-.71,.83-1.36,1.4-1.93,.57-.57,1.22-1.04,1.93-1.4,.71-.36,1.46-.61,2.35-.77,1.03-.18,2.13-.24,3.07-.26,.54-.01,1.08-.02,1.61-.02h1.99s161.49,0,161.49,0"/><g><g><path d="M789.66,43.82c1.68-2.11,2.83-4.94,2.53-7.83-2.47,.12-5.47,1.63-7.22,3.74-1.56,1.81-2.95,4.75-2.59,7.52,2.77,.24,5.53-1.38,7.28-3.43"/><path d="M792.15,47.8c-4.02-.24-7.44,2.28-9.36,2.28s-4.86-2.16-8.04-2.1c-4.14,.06-7.98,2.4-10.08,6.12-4.32,7.44-1.14,18.49,3.06,24.55,2.04,3,4.5,6.3,7.74,6.18,3.06-.12,4.26-1.98,7.98-1.98s4.8,1.98,8.04,1.92c3.36-.06,5.46-3,7.5-6,2.34-3.42,3.3-6.72,3.36-6.9-.06-.06-6.48-2.52-6.54-9.9-.06-6.18,5.04-9.12,5.28-9.3-2.88-4.26-7.38-4.74-8.94-4.86"/></g><g><path d="M827.15,39.43c8.74,0,14.82,6.02,14.82,14.79s-6.21,14.85-15.04,14.85h-9.67v15.38h-6.99V39.43h16.88Zm-9.89,23.78h8.02c6.08,0,9.55-3.28,9.55-8.96s-3.46-8.92-9.52-8.92h-8.05v17.88Z"/><path d="M843.8,75.13c0-5.74,4.4-9.27,12.2-9.7l8.99-.53v-2.53c0-3.65-2.47-5.84-6.58-5.84-3.9,0-6.34,1.87-6.93,4.81h-6.37c.37-5.93,5.43-10.3,13.54-10.3s13.04,4.21,13.04,10.8v22.62h-6.46v-5.4h-.16c-1.9,3.65-6.05,5.96-10.36,5.96-6.43,0-10.92-3.99-10.92-9.89Zm21.19-2.96v-2.59l-8.08,.5c-4.03,.28-6.3,2.06-6.3,4.87s2.37,4.74,5.99,4.74c4.71,0,8.39-3.25,8.39-7.52Z"/><path d="M877.79,96.53v-5.46c.5,.12,1.62,.12,2.18,.12,3.12,0,4.81-1.31,5.83-4.68,0-.06,.59-2,.59-2.03l-11.86-32.86h7.3l8.3,26.71h.12l8.3-26.71h7.11l-12.3,34.54c-2.81,7.96-6.05,10.52-12.85,10.52-.56,0-2.25-.06-2.75-.16Z"/></g></g></g><rect class="cls-4" x="541.77" y="15.52" width="54.14" height="97.3"/><path class="cls-2" d="M545.21,64.17c-.02-18.99,8.7-36.93,23.63-48.65-26.87-21.12-65.77-16.46-86.89,10.41-21.12,26.87-16.46,65.77,10.41,86.89,22.44,17.64,54.04,17.64,76.48,0-14.94-11.72-23.65-29.66-23.63-48.65Z"/><path class="cls-1" d="M668.96,64.17c0,34.17-27.7,61.88-61.87,61.88-13.87,0-27.34-4.66-38.24-13.23,26.87-21.13,31.52-60.03,10.4-86.9-3.04-3.87-6.53-7.36-10.4-10.4,26.87-21.12,65.77-16.46,86.88,10.41,8.57,10.9,13.23,24.37,13.23,38.24Z"/><path class="cls-3" d="M152.09,2.29l-52.44,125.12h-34.22L39.63,27.56c-1.57-6.15-2.93-8.4-7.69-10.99C24.15,12.34,11.3,8.38,0,5.92L.77,2.29H55.84c7.02,0,13.33,4.67,14.93,12.76l13.63,72.4L118.09,2.28h34.01Zm134.06,84.27c.14-33.02-45.67-34.84-45.35-49.6,.1-4.49,4.37-9.26,13.73-10.48,4.64-.61,17.42-1.07,31.91,5.6l5.69-26.53c-7.79-2.83-17.81-5.55-30.28-5.55-31.99,0-54.51,17.01-54.7,41.36-.21,18.01,16.07,28.07,28.33,34.05,12.62,6.13,16.85,10.07,16.8,15.55-.09,8.39-10.06,12.1-19.38,12.24-16.27,.25-25.71-4.4-33.24-7.9l-5.87,27.41c7.56,3.47,21.52,6.5,36,6.65,34,0,56.25-16.8,56.35-42.81m84.48,40.85h29.94L374.44,2.29h-27.63c-6.21,0-11.45,3.62-13.77,9.18l-48.57,115.94h33.99l6.75-18.69h41.53l3.91,18.69Zm-36.12-44.33l17.04-46.98,9.81,46.98h-26.84ZM198.34,2.29l-26.77,125.12h-32.37L165.98,2.29h32.36Z"/></g></g></svg>