<?xml version="1.0" encoding="UTF-8"?><svg id="Ebene_2" xmlns="http://www.w3.org/2000/svg" viewBox="0 0 928.8 125.32"><defs><style>.cls-1{fill:#fabb05;}.cls-2{fill:#fbbc09;}.cls-3{fill:#e94235;}.cls-4{fill:#fff;}.cls-5{fill:#ffb3c7;}.cls-6{fill:#2350a9;}.cls-7{fill:#4285f4;}.cls-8{fill:#34a853;}.cls-9{fill:#0a0b09;}.cls-10{fill:#3c4043;}</style></defs><g id="Ebene_1-2"><g><path id="Base" class="cls-4" d="M866.21,0h-110.17c-34.43,0-62.59,28.17-62.59,62.59h0c0,34.43,28.17,62.59,62.59,62.59h110.17c34.43,0,62.59-28.17,62.59-62.59h0c0-34.43-28.17-62.59-62.59-62.59Z"/><path id="Outline" class="cls-10" d="M866.21,5.07c7.73,0,15.24,1.53,22.31,4.54,6.85,2.91,12.99,7.07,18.31,12.36,5.29,5.29,9.45,11.45,12.36,18.31,3,7.07,4.54,14.58,4.54,22.31s-1.53,15.24-4.54,22.31c-2.91,6.85-7.07,12.99-12.36,18.31-5.29,5.29-11.45,9.45-18.31,12.36-7.07,3-14.58,4.54-22.31,4.54h-110.17c-7.73,0-15.24-1.53-22.31-4.54-6.85-2.91-12.99-7.07-18.31-12.36-5.29-5.29-9.45-11.45-12.36-18.31-3-7.07-4.54-14.58-4.54-22.31s1.53-15.24,4.54-22.31c2.91-6.85,7.07-12.99,12.36-18.31,5.29-5.29,11.45-9.45,18.31-12.36,7.07-3,14.58-4.54,22.31-4.54h110.17m0-5.07h-110.17c-34.43,0-62.59,28.17-62.59,62.59h0c0,34.43,28.17,62.59,62.59,62.59h110.17c34.43,0,62.59-28.17,62.59-62.59h0c0-34.43-28.17-62.59-62.59-62.59h0Z"/><g id="G_Pay_Lockup"><g id="Pay_Typeface"><path id="Letter_p" class="cls-10" d="M805.68,67.04v18.93h-6.01V39.22h15.93c4.04,0,7.48,1.35,10.3,4.04,2.88,2.69,4.32,5.98,4.32,9.86s-1.44,7.26-4.32,9.92c-2.79,2.66-6.23,3.97-10.3,3.97h-9.92v.03Zm0-22.06v16.31h10.05c2.38,0,4.38-.81,5.95-2.41,1.6-1.6,2.41-3.54,2.41-5.73s-.81-4.07-2.41-5.66c-1.56-1.66-3.54-2.47-5.95-2.47h-10.05v-.03Z"/><path id="Letter_a" class="cls-10" d="M845.93,52.92c4.44,0,7.95,1.19,10.52,3.57,2.57,2.38,3.85,5.63,3.85,9.76v19.72h-5.73v-4.44h-.25c-2.47,3.66-5.79,5.48-9.92,5.48-3.54,0-6.48-1.03-8.86-3.13s-3.57-4.69-3.57-7.82c0-3.32,1.25-5.95,3.76-7.89,2.5-1.97,5.85-2.94,10.02-2.94,3.57,0,6.51,.66,8.79,1.97v-1.38c0-2.1-.81-3.85-2.47-5.32-1.66-1.47-3.6-2.19-5.82-2.19-3.35,0-6.01,1.41-7.95,4.26l-5.29-3.32c2.91-4.23,7.23-6.32,12.93-6.32Zm-7.76,23.22c0,1.56,.66,2.88,2,3.91,1.31,1.03,2.88,1.56,4.66,1.56,2.54,0,4.79-.94,6.76-2.82s2.97-4.07,2.97-6.6c-1.88-1.47-4.48-2.22-7.82-2.22-2.44,0-4.48,.59-6.1,1.75-1.66,1.22-2.47,2.69-2.47,4.41Z"/><path id="Letter_y" class="cls-10" d="M892.96,53.96l-20.03,46.07h-6.2l7.45-16.12-13.21-29.95h6.54l9.51,22.97h.13l9.26-22.97h6.54Z"/></g><g id="G_Mark"><path id="Blue_500" class="cls-7" d="M781.78,63.22c0-1.96-.18-3.83-.5-5.64h-25.19v10.33h14.51c-.59,3.44-2.48,6.37-5.38,8.32v6.7h8.63c5.04-4.67,7.93-11.56,7.93-19.71Z"/><path id="Green_500" class="cls-8" d="M765.21,76.23c-2.4,1.62-5.5,2.57-9.12,2.57-6.99,0-12.93-4.71-15.05-11.07h-8.91v6.91c4.41,8.76,13.48,14.77,23.96,14.77,7.24,0,13.33-2.38,17.75-6.48l-8.63-6.7Z"/><path id="Yellow_500" class="cls-1" d="M740.2,62.61c0-1.78,.3-3.51,.84-5.13v-6.91h-8.91c-1.82,3.62-2.85,7.71-2.85,12.04s1.03,8.42,2.85,12.04l8.91-6.91c-.54-1.62-.84-3.35-.84-5.13Z"/><path id="Red_500" class="cls-3" d="M756.09,46.41c3.95,0,7.49,1.36,10.29,4.02l7.65-7.65c-4.65-4.33-10.71-6.99-17.94-6.99-10.48,0-19.55,6.01-23.96,14.77l8.91,6.91c2.13-6.35,8.06-11.07,15.05-11.07Z"/></g></g></g><g><path id="path21" class="cls-6" d="M.09,114.03l3.56-.36c.21,1.2,.65,2.08,1.3,2.64,.66,.56,1.54,.84,2.65,.84,1.18,0,2.06-.25,2.66-.75,.6-.5,.9-1.08,.9-1.75,0-.43-.13-.79-.38-1.1-.25-.3-.69-.56-1.31-.79-.43-.15-1.4-.41-2.92-.79-1.96-.48-3.33-1.08-4.12-1.79-1.11-.99-1.66-2.21-1.66-3.64,0-.92,.26-1.78,.78-2.58,.52-.8,1.28-1.41,2.26-1.83s2.17-.63,3.56-.63c2.27,0,3.98,.5,5.13,1.5,1.15,1,1.75,2.33,1.81,4l-3.67,.14c-.16-.93-.49-1.6-1.01-2.01-.51-.41-1.29-.61-2.32-.61s-1.89,.22-2.49,.66c-.39,.28-.58,.65-.58,1.12,0,.43,.18,.79,.54,1.1,.46,.39,1.58,.79,3.36,1.21,1.78,.42,3.09,.85,3.94,1.3,.85,.45,1.52,1.06,2,1.84,.48,.78,.72,1.75,.72,2.89,0,1.04-.29,2.02-.87,2.92-.58,.91-1.39,1.58-2.45,2.03-1.05,.44-2.37,.66-3.94,.66-2.29,0-4.05-.53-5.28-1.6-1.23-1.06-1.96-2.62-2.2-4.66"/><path id="path23" class="cls-6" d="M18.63,119.96v-13.12h3.49v13.12h-3.49Zm0-14.92v-3.2h3.49v3.2h-3.49"/><path id="path25" class="cls-6" d="M38.39,119.96h-3.49v-6.71c0-1.42-.07-2.34-.22-2.75-.15-.42-.39-.74-.72-.97-.33-.23-.73-.35-1.2-.35-.6,0-1.14,.17-1.61,.5-.48,.33-.8,.77-.98,1.31-.18,.54-.26,1.55-.26,3.02v5.95h-3.49v-13.12h3.23v1.93c1.14-1.5,2.59-2.25,4.32-2.25,.77,0,1.47,.14,2.1,.42,.63,.28,1.11,.63,1.44,1.06,.33,.43,.55,.92,.68,1.46,.13,.54,.19,1.32,.19,2.34v8.17"/><path id="path27" class="cls-6" d="M45.44,113.12c0,1.4,.27,2.42,.8,3.07,.54,.65,1.2,.97,1.98,.97,.84,0,1.55-.33,2.13-1,.58-.66,.87-1.65,.87-2.96s-.28-2.37-.83-3.04c-.56-.66-1.26-.99-2.11-.99s-1.51,.33-2.04,.97c-.54,.65-.8,1.64-.8,2.97h0Zm-3.13,7.7l3.95,.43c.07,.49,.22,.82,.46,1.01,.33,.26,.85,.39,1.56,.39,.91,0,1.59-.14,2.05-.41,.31-.18,.54-.47,.69-.88,.11-.29,.16-.82,.16-1.59v-1.92c-1.02,1.4-2.32,2.1-3.9,2.1-1.76,0-3.16-.75-4.19-2.24-.81-1.18-1.21-2.65-1.21-4.41,0-2.2,.53-3.89,1.59-5.05,1.06-1.16,2.38-1.74,3.95-1.74s2.96,.71,4.02,2.14v-1.82h3.23v11.79c0,1.55-.13,2.71-.38,3.48-.26,.77-.62,1.37-1.08,1.81-.46,.44-1.08,.78-1.85,1.03-.77,.25-1.75,.37-2.93,.37-2.23,0-3.81-.38-4.74-1.15-.93-.77-1.4-1.74-1.4-2.92,0-.12,0-.26,.01-.42"/><path id="path29" class="cls-6" d="M58.85,119.96h3.49v-18.12h-3.49v18.12Z"/><path id="path31" class="cls-6" d="M74.47,112.31c-.02-1.02-.29-1.8-.78-2.33-.5-.53-1.1-.8-1.81-.8-.76,0-1.39,.28-1.89,.84-.5,.56-.74,1.32-.73,2.29h5.22Zm-.18,3.52l3.45,.58c-.45,1.26-1.15,2.23-2.11,2.89-.96,.66-2.17,.99-3.61,.99-2.29,0-3.98-.75-5.08-2.25-.87-1.2-1.3-2.71-1.3-4.54,0-2.18,.57-3.89,1.71-5.13,1.14-1.24,2.58-1.85,4.32-1.85,1.96,0,3.5,.65,4.64,1.94,1.13,1.3,1.67,3.28,1.62,5.96h-8.73c.02,1.03,.31,1.84,.85,2.41,.54,.57,1.21,.86,2.02,.86,.55,0,1.01-.15,1.38-.44,.37-.29,.66-.77,.85-1.43"/><path id="path33" class="cls-6" d="M89.33,119.96v-18.12h13.41v3.06h-9.74v4.03h9.06v3.06h-9.06v4.92h10.1v3.05h-13.77"/><path id="path35" class="cls-6" d="M115.56,119.96v-1.96c-.48,.7-1.11,1.26-1.89,1.67-.78,.41-1.6,.62-2.47,.62s-1.68-.19-2.38-.58c-.7-.39-1.21-.93-1.52-1.63-.31-.7-.47-1.67-.47-2.91v-8.32h3.49v6.03c0,1.85,.06,2.98,.19,3.39,.13,.42,.36,.75,.7,.99,.34,.24,.77,.36,1.29,.36,.59,0,1.13-.16,1.6-.49,.47-.33,.79-.73,.97-1.21,.17-.48,.26-1.66,.26-3.54v-5.54h3.49v13.12h-3.23"/><path id="path37" class="cls-6" d="M126.45,119.96h-3.49v-13.12h3.23v1.87c.55-.88,1.05-1.47,1.49-1.75,.44-.29,.94-.43,1.5-.43,.79,0,1.56,.22,2.29,.66l-1.06,3.04c-.59-.38-1.13-.57-1.64-.57s-.9,.13-1.24,.4c-.34,.27-.61,.75-.8,1.45-.19,.7-.29,2.17-.29,4.4v4.06"/><path id="path39" class="cls-6" d="M136.45,113.41c0,1.31,.31,2.31,.93,3s1.38,1.04,2.29,1.04,1.67-.35,2.29-1.04,.92-1.7,.92-3.03-.31-2.28-.92-2.98c-.62-.7-1.38-1.04-2.29-1.04s-1.67,.35-2.29,1.04c-.62,.69-.93,1.7-.93,3Zm-3.56-.19c0-1.16,.28-2.28,.85-3.36,.57-1.08,1.37-1.91,2.42-2.48,1.04-.57,2.21-.86,3.49-.86,1.99,0,3.61,.65,4.88,1.94,1.27,1.29,1.9,2.93,1.9,4.91s-.64,3.64-1.92,4.95c-1.28,1.31-2.9,1.97-4.84,1.97-1.2,0-2.35-.27-3.44-.82-1.09-.55-1.92-1.35-2.49-2.4-.57-1.05-.85-2.34-.85-3.85"/><path id="path41" class="cls-6" d="M161.46,104.9v5.18h2c1.44,0,2.4-.09,2.88-.29,.48-.19,.86-.49,1.14-.9,.27-.41,.41-.88,.41-1.42,0-.66-.19-1.21-.58-1.64s-.88-.7-1.47-.81c-.44-.08-1.31-.12-2.63-.12h-1.76Zm-3.67,15.06v-18.12h5.87c2.22,0,3.67,.09,4.35,.27,1.04,.27,1.91,.86,2.61,1.77,.7,.91,1.05,2.09,1.05,3.53,0,1.11-.2,2.05-.6,2.81-.4,.76-.92,1.35-1.54,1.78-.62,.43-1.25,.72-1.89,.86-.87,.17-2.14,.26-3.79,.26h-2.38v6.83h-3.67"/><path id="path43" class="cls-6" d="M182.62,113.68c-.45,.15-1.15,.33-2.11,.53-.96,.21-1.59,.41-1.89,.61-.45,.32-.68,.73-.68,1.23s.18,.91,.54,1.27c.36,.36,.82,.53,1.38,.53,.62,0,1.22-.21,1.79-.62,.42-.32,.69-.7,.83-1.15,.09-.3,.14-.86,.14-1.7v-.69Zm-4.67-2.84l-3.13-.58c.35-1.27,.96-2.21,1.83-2.82,.87-.61,2.15-.92,3.86-.92,1.55,0,2.7,.18,3.46,.55,.76,.37,1.29,.84,1.6,1.4,.31,.56,.46,1.6,.46,3.11l-.04,4.06c0,1.16,.06,2.01,.17,2.56,.11,.55,.32,1.14,.62,1.76h-3.45c-.09-.23-.2-.56-.33-1.01-.06-.2-.1-.34-.12-.4-.59,.58-1.23,1.01-1.9,1.3-.68,.29-1.39,.43-2.16,.43-1.35,0-2.42-.37-3.19-1.1-.78-.74-1.17-1.66-1.17-2.79,0-.74,.18-1.4,.53-1.99,.36-.58,.85-1.03,1.49-1.34,.64-.31,1.56-.58,2.76-.81,1.62-.3,2.75-.59,3.37-.85v-.35c0-.68-.17-1.16-.5-1.45-.33-.29-.96-.43-1.88-.43-.62,0-1.11,.12-1.45,.37-.35,.24-.63,.67-.84,1.29"/><path id="path45" class="cls-6" d="M188.54,106.85h3.7l3.15,9.31,3.07-9.31h3.59l-4.62,12.63-.84,2.31c-.31,.77-.6,1.35-.87,1.76-.28,.4-.59,.73-.95,.98-.36,.25-.8,.45-1.32,.59-.52,.14-1.12,.21-1.78,.21s-1.33-.07-1.97-.21l-.32-2.72c.55,.11,1.04,.16,1.48,.16,.81,0,1.41-.24,1.8-.72,.39-.48,.69-1.09,.89-1.83l-5-13.16"/><path id="path47" class="cls-6" d="M204.77,106.85h3.2v1.79c1.15-1.41,2.52-2.11,4.1-2.11,.84,0,1.57,.17,2.19,.52,.62,.35,1.13,.87,1.52,1.57,.58-.7,1.2-1.23,1.87-1.57,.67-.35,1.38-.52,2.14-.52,.97,0,1.78,.2,2.45,.59,.67,.39,1.17,.97,1.5,1.73,.24,.56,.36,1.47,.36,2.72v8.4h-3.49v-7.51c0-1.3-.12-2.15-.36-2.52-.32-.5-.82-.74-1.48-.74-.49,0-.94,.15-1.37,.45-.43,.3-.74,.73-.92,1.31-.19,.57-.29,1.48-.29,2.72v6.31h-3.49v-7.2c0-1.28-.06-2.1-.19-2.48-.12-.37-.31-.65-.57-.83-.26-.18-.61-.27-1.06-.27-.53,0-1.02,.15-1.44,.43-.43,.29-.73,.71-.92,1.25-.19,.55-.28,1.45-.28,2.71v6.39h-3.49v-13.12"/><path id="path49" class="cls-6" d="M236.12,112.31c-.03-1.02-.29-1.8-.78-2.33-.5-.53-1.1-.8-1.81-.8-.76,0-1.39,.28-1.89,.84-.5,.56-.74,1.32-.73,2.29h5.22Zm-.18,3.52l3.45,.58c-.45,1.26-1.15,2.23-2.11,2.89-.96,.66-2.17,.99-3.62,.99-2.29,0-3.98-.75-5.08-2.25-.87-1.2-1.3-2.71-1.3-4.54,0-2.18,.57-3.89,1.71-5.13,1.14-1.24,2.58-1.85,4.32-1.85,1.96,0,3.5,.65,4.63,1.94,1.13,1.3,1.67,3.28,1.62,5.96h-8.73c.03,1.03,.31,1.84,.85,2.41,.54,.57,1.21,.86,2.02,.86,.55,0,1.01-.15,1.38-.44,.38-.29,.66-.77,.85-1.43"/><path id="path51" class="cls-6" d="M255.08,119.96h-3.49v-6.71c0-1.42-.07-2.34-.22-2.75-.15-.42-.39-.74-.72-.97-.33-.23-.73-.35-1.2-.35-.6,0-1.14,.17-1.61,.5-.48,.33-.8,.77-.98,1.31-.18,.54-.26,1.55-.26,3.02v5.95h-3.49v-13.12h3.23v1.93c1.15-1.5,2.59-2.25,4.32-2.25,.77,0,1.47,.14,2.1,.42,.63,.28,1.11,.63,1.44,1.06,.33,.43,.55,.92,.68,1.46,.13,.54,.19,1.32,.19,2.34v8.17"/><path id="path53" class="cls-6" d="M265.37,106.85v2.77h-2.37v5.31c0,1.07,.02,1.7,.07,1.88,.04,.18,.14,.32,.3,.44,.16,.12,.35,.17,.58,.17,.32,0,.77-.11,1.37-.33l.3,2.69c-.8,.35-1.71,.52-2.73,.52-.62,0-1.18-.11-1.69-.32-.5-.21-.87-.48-1.1-.82-.23-.33-.39-.79-.48-1.36-.07-.4-.11-1.22-.11-2.45v-5.73h-1.58v-2.77h1.58v-2.62l3.49-2.05v4.67h2.37"/><path id="path55" class="cls-6" d="M267.33,116.26l3.49-.54c.15,.67,.45,1.18,.9,1.53,.45,.35,1.09,.52,1.9,.52,.9,0,1.57-.17,2.03-.5,.3-.23,.46-.54,.46-.93,0-.26-.08-.49-.25-.66-.17-.17-.56-.32-1.17-.46-2.82-.62-4.6-1.19-5.36-1.7-1.04-.71-1.57-1.7-1.57-2.96,0-1.14,.45-2.1,1.35-2.87,.9-.78,2.3-1.17,4.2-1.17s3.15,.29,4.03,.87c.88,.58,1.48,1.44,1.81,2.58l-3.27,.61c-.14-.51-.41-.9-.81-1.17-.4-.27-.96-.41-1.69-.41-.92,0-1.59,.13-1.99,.39-.27,.18-.4,.42-.4,.71,0,.25,.12,.46,.35,.64,.31,.23,1.4,.56,3.26,.98,1.86,.42,3.15,.94,3.89,1.55,.73,.62,1.09,1.49,1.09,2.6,0,1.21-.5,2.25-1.51,3.12-1.01,.87-2.49,1.31-4.46,1.31-1.79,0-3.2-.36-4.24-1.08-1.04-.72-1.72-1.7-2.04-2.94"/><path id="path57" class="cls-6" d="M300.81,112.81l-2.53-6.72-2.45,6.72h4.98Zm6.72,7.15h-3.95l-1.57-4.1h-7.3l-1.49,4.1h-3.88l7.02-18.12h3.86l7.32,18.12"/><path id="path59" class="cls-6" d="M313.51,119.96h-3.49v-13.12h3.23v1.87c.55-.88,1.05-1.47,1.49-1.75,.44-.29,.94-.43,1.5-.43,.79,0,1.55,.22,2.29,.66l-1.06,3.04c-.59-.38-1.13-.57-1.64-.57s-.9,.13-1.24,.4c-.34,.27-.61,.75-.8,1.45-.2,.7-.29,2.17-.29,4.4v4.06"/><path id="path61" class="cls-6" d="M328.61,112.31c-.03-1.02-.29-1.8-.78-2.33-.5-.53-1.1-.8-1.81-.8-.76,0-1.39,.28-1.89,.84-.5,.56-.74,1.32-.73,2.29h5.22Zm-.18,3.52l3.45,.58c-.45,1.26-1.15,2.23-2.11,2.89-.96,.66-2.17,.99-3.61,.99-2.29,0-3.99-.75-5.08-2.25-.87-1.2-1.3-2.71-1.3-4.54,0-2.18,.57-3.89,1.71-5.13,1.14-1.24,2.58-1.85,4.32-1.85,1.96,0,3.5,.65,4.64,1.94,1.13,1.3,1.67,3.28,1.62,5.96h-8.73c.03,1.03,.31,1.84,.85,2.41,.54,.57,1.22,.86,2.02,.86,.55,0,1.01-.15,1.39-.44,.37-.29,.66-.77,.85-1.43"/><path id="path63" class="cls-6" d="M342.87,113.68c-.44,.15-1.15,.33-2.11,.53-.96,.21-1.59,.41-1.89,.61-.45,.32-.68,.73-.68,1.23s.18,.91,.54,1.27c.36,.36,.82,.53,1.38,.53,.62,0,1.22-.21,1.79-.62,.42-.32,.69-.7,.83-1.15,.09-.3,.14-.86,.14-1.7v-.69Zm-4.67-2.84l-3.13-.58c.35-1.27,.96-2.21,1.83-2.82,.87-.61,2.15-.92,3.86-.92,1.55,0,2.7,.18,3.46,.55,.76,.37,1.29,.84,1.6,1.4,.31,.56,.46,1.6,.46,3.11l-.04,4.06c0,1.16,.06,2.01,.17,2.56,.11,.55,.32,1.14,.62,1.76h-3.45c-.09-.23-.2-.56-.33-1.01-.06-.2-.1-.34-.12-.4-.59,.58-1.23,1.01-1.9,1.3-.68,.29-1.4,.43-2.16,.43-1.35,0-2.42-.37-3.19-1.1-.78-.74-1.17-1.66-1.17-2.79,0-.74,.18-1.4,.53-1.99,.35-.58,.85-1.03,1.49-1.34,.64-.31,1.56-.58,2.76-.81,1.62-.3,2.75-.59,3.37-.85v-.35c0-.68-.17-1.16-.5-1.45-.33-.29-.96-.43-1.88-.43-.62,0-1.11,.12-1.45,.37-.35,.24-.63,.67-.84,1.29"/><path id="path65" class="cls-6" d="M77.08,30.67h-23.74c0-3.9-.46-6.51-1.37-7.84-1.41-1.97-5.31-2.95-11.69-2.95s-10.31,.57-12.31,1.7c-2,1.14-3.01,3.62-3.01,7.43,0,3.45,.89,5.72,2.67,6.81,1.27,.77,2.96,1.23,5.06,1.36l4.79,.34c10.26,.68,16.67,1.16,19.22,1.43,8.11,.82,14,2.98,17.65,6.47,2.87,2.73,4.58,6.29,5.13,10.7,.32,2.63,.48,5.62,.48,8.93,0,7.63-.73,13.22-2.19,16.76-2.64,6.5-8.58,10.61-17.82,12.33-3.87,.73-9.79,1.09-17.76,1.09-13.29,0-22.56-.79-27.79-2.38-6.42-1.95-10.65-5.9-12.7-11.84-1.14-3.31-1.71-8.82-1.71-16.53H23.74c0,.86,0,1.52,0,1.97,0,4.12,1.18,6.76,3.55,7.94,1.64,.81,3.61,1.24,5.93,1.29h8.73c4.45,0,7.3-.23,8.52-.69,2.18-.86,3.61-2.24,4.3-4.15,.36-1.18,.54-2.7,.54-4.56,0-4.17-1.52-6.71-4.57-7.62-1.14-.36-6.43-.86-15.88-1.5-7.59-.54-12.86-1.06-15.81-1.57-7.77-1.45-12.95-4.44-15.54-8.98C1.25,42.75,.12,36.92,.12,29.11,.12,23.17,.73,18.4,1.96,14.82c1.23-3.59,3.21-6.31,5.94-8.17C11.9,3.79,17.02,2.11,23.25,1.61c5.19-.45,10.94-.68,17.27-.68,9.96,0,17.06,.57,21.3,1.71,10.33,2.78,15.49,10.55,15.49,23.32,0,1.05-.08,2.61-.23,4.71"/><path id="path67" class="cls-6" d="M206.98,48.76h15.91c5.04-.18,8.11-.57,9.22-1.18,1.51-.83,2.52-2.49,3.02-4.98,.32-1.66,.48-4.12,.48-7.39,0-4.01-.32-6.98-.96-8.92-.92-2.72-3.12-4.38-6.6-4.98-.69-.09-2.34-.14-4.95-.14h-16.12v27.59Zm-25.52,46.47V.42h47.54c6.52,0,11.5,.53,14.91,1.6,7.82,2.45,13.06,7.47,15.75,15.05,1.39,3.98,2.08,9.97,2.08,17.97,0,9.62-.77,16.53-2.29,20.74-3.05,8.32-9.33,13.11-18.8,14.35-1.11,.19-5.86,.35-14.23,.49l-4.24,.14h-15.21v24.48h-25.52"/><path id="path69" class="cls-6" d="M311.15,60.38l-11.96-41.1-11.6,41.1h23.56Zm5.07,18.47h-34.12l-4.58,16.39h-26.4L279.6,.42h38.49l28.84,94.81h-25.84l-4.87-16.39"/><path id="path71" class="cls-2" d="M146.25,13.76c10.52,0,19.92,4.85,26.09,12.44l5.5-11.79c-8.6-8.13-20.31-13.14-33.22-13.14-20.11,0-37.3,12.14-44.36,29.33h-10.73l-6.33,13.58h13.8c-.1,1.26-.17,2.52-.17,3.81,0,1.56,.08,3.09,.23,4.61h-6.93l-6.33,13.58h16.79c7.26,16.75,24.24,28.52,44.03,28.52,9.97,0,19.23-2.99,26.89-8.09v-16.64c-6.17,7.03-15.2,11.47-25.26,11.47-11.76,0-22.11-6.07-28.13-15.24h35.16l6.33-13.58h-46.67c-.24-1.63-.37-3.3-.37-5.01,0-1.15,.06-2.29,.17-3.41h50.79l6.33-13.58h-52.73c5.83-10.06,16.68-16.84,29.11-16.84"/><path id="path73" class="cls-6" d="M117.14,31.01h52.73l-.37-.58-6.33,13.58,.37-.23h-51.16l-.04,.37c-.11,1.15-.17,2.31-.17,3.45,0,1.68,.13,3.39,.37,5.07l.05,.35h47.02l-.37-.58-6.33,13.58,.37-.23h-35.92l.42,.63c6.34,9.66,16.98,15.43,28.47,15.43,9.77,0,19.09-4.22,25.57-11.6l-.72-.27v16.64l.18-.34c-7.88,5.25-17.1,8.02-26.66,8.02-19.08,0-36.22-11.1-43.66-28.27l-.11-.24h-17.06l.37,.58,6.33-13.58-.37,.24h7.38l-.04-.45c-.15-1.53-.23-3.08-.23-4.57,0-1.15,.06-2.39,.17-3.77l.04-.44h-14.24l.37,.58,6.33-13.58-.37,.24h11l.1-.25c3.49-8.49,9.41-15.72,17.14-20.93,7.91-5.33,17.2-8.15,26.85-8.15,12.35,0,24.05,4.62,32.94,13.03l-.09-.47-5.5,11.8,.68-.09c-6.51-8-16.13-12.59-26.41-12.59-12.09,0-23.37,6.53-29.47,17.04l-.35,.61h.71Zm29.11-16.84c10.03,0,19.42,4.48,25.77,12.29l.41,.5,.28-.59,5.5-11.79,.12-.27-.21-.2C169.08,5.57,157.18,.86,144.62,.86c-9.81,0-19.25,2.87-27.3,8.29-7.86,5.29-13.89,12.66-17.43,21.29l.37-.25h-10.99l-.11,.24-6.33,13.58-.27,.58h14.44l-.41-.44c-.12,1.41-.17,2.66-.17,3.84,0,1.52,.08,3.09,.23,4.65l.41-.45h-7.19l-.11,.23-6.33,13.58-.27,.58h17.43l-.37-.25c7.57,17.47,25,28.76,44.41,28.76,9.73,0,19.1-2.82,27.12-8.16l.18-.12v-17.95l-.71,.81c-6.32,7.2-15.42,11.32-24.95,11.32-11.22,0-21.61-5.63-27.79-15.06l-.34,.63h35.42l.11-.23,6.33-13.58,.27-.58h-47.31l.4,.35c-.24-1.64-.37-3.31-.37-4.95,0-1.12,.06-2.25,.17-3.37l-.41,.37h51.05l.11-.23,6.33-13.58,.27-.58h-53.37l.35,.61c5.95-10.26,16.97-16.64,28.76-16.64"/></g><g><rect class="cls-5" x="427.66" y="1.43" width="187.42" height="123.89" rx="15.88" ry="15.88"/><path class="cls-9" d="M597.61,71.81c-2.46-.01-4.46,1.97-4.47,4.42-.01,2.46,1.97,4.46,4.42,4.47s4.46-1.97,4.47-4.42c0,0,0-.02,0-.03,0-2.45-1.98-4.43-4.42-4.45Zm-14.56-3.45c-.16-3.52-3.14-6.25-6.67-6.1-3.3,.15-5.95,2.79-6.1,6.1,.16,3.52,3.14,6.25,6.67,6.1,3.3-.15,5.95-2.79,6.1-6.1Zm.02-11.87h7.04v23.74h-7.04v-1.52c-2.05,1.42-4.49,2.18-6.99,2.18-6.92,0-12.53-5.61-12.53-12.53s5.61-12.53,12.53-12.53c2.5,0,4.93,.76,6.99,2.18v-1.52Zm-56.37,3.09v-3.09h-7.21v23.74h7.23v-11.08c0-3.74,4.02-5.75,6.8-5.75h.08v-6.9c-2.65-.07-5.19,1.07-6.9,3.09h0Zm-17.96,8.78c-.16-3.52-3.14-6.25-6.67-6.1-3.3,.15-5.95,2.79-6.1,6.1,.16,3.52,3.14,6.25,6.67,6.1,3.3-.15,5.95-2.79,6.1-6.1Zm.02-11.87h7.04v23.74h-7.04v-1.52c-2.05,1.42-4.49,2.18-6.99,2.18-6.92,0-12.53-5.61-12.53-12.53s5.61-12.53,12.53-12.53c2.5,0,4.93,.76,6.99,2.18v-1.52Zm42.4-.64c-2.82-.17-5.54,1.07-7.26,3.31v-2.67h-7.01v23.74h7.1v-12.48c-.22-2.74,1.82-5.15,4.56-5.37,.24-.02,.48-.02,.73,0,3.1,0,4.88,1.86,4.88,5.33v12.53h7.04v-15.1c-.02-5.16-4.23-9.33-9.39-9.31-.21,0-.43,0-.64,.02h0Zm-72.04,24.38h7.37V45.91h-7.37v34.33Zm-32.4,0h7.81V45.91h-7.81v34.33Zm27.32-34.33c.03,7.3-2.85,14.32-8,19.49l10.8,14.85h-9.65l-11.73-16.14,3.03-2.29c5-3.76,7.93-9.66,7.9-15.91h7.65Z"/></g></g></svg>